P2
7 3
91234567912345679123
21234567912345679123  31234567912345679123  11234567912345679123  71234567912345679123 41234567912345679123 61234567912345679123 91234567912345679123
11234567912345679123  71234567912345679123  81234567912345679123  31234567912345679123 11234567912345679123 21234567912345679123 41234567912345679123
81234567912345679123  21234567912345679123  31234567912345679123  11234567912345679123 51234567912345679123 41234567912345679123 61234567912345679123
