P2
7 5
9
2  3  1  7 4 6 9
1  7  8  3 1 2 4
8  2  3  1 5 4 6
3  1  6  4 5 3 2
4  5  8  1 2 1 3