P2
7 3
9
2  3  1  7 4 6 9
1  7  8  3 1 2 4
8  2  3  1 5 4 6
